<svg xmlns="http://www.w3.org/2000/svg" width="38" height="38" viewBox="0 0 38 38">
    <g fill="none" fill-rule="evenodd">
        <g fill="#454A4C" fill-rule="nonzero">
            <g>
                <path d="M31.252 10.31H8.997l-.33-3.685c-.055-.603-.56-1.065-1.165-1.065H5.127c-.645 0-1.169.524-1.169 1.17 0 .645.524 1.168 1.17 1.168h1.306c.713 7.954-1.132-12.603 1.344 14.979.095 1.08.679 2.251 1.684 3.047-1.812 2.314-.157 5.724 2.79 5.724 2.446 0 4.171-2.44 3.333-4.75h6.397c-.837 2.308.884 4.75 3.333 4.75 1.954 0 3.544-1.59 3.544-3.544s-1.59-3.544-3.544-3.544H12.26c-.888 0-1.662-.535-1.996-1.316l18.682-1.098c.51-.03.941-.387 1.065-.883l2.375-9.5c.185-.737-.373-1.453-1.134-1.453zm-19 19c-.665 0-1.206-.54-1.206-1.206 0-.665.541-1.206 1.206-1.206.665 0 1.206.541 1.206 1.206 0 .665-.54 1.206-1.206 1.206zm13.063 0c-.665 0-1.206-.54-1.206-1.206 0-.665.54-1.206 1.206-1.206.665 0 1.206.541 1.206 1.206 0 .665-.541 1.206-1.206 1.206zm2.636-9.447L9.95 20.92l-.743-8.273h20.548l-1.804 7.215z" transform="translate(-1224 -45) translate(1224 45)"/>
            </g>
        </g>
    </g>
</svg>
