<svg xmlns="http://www.w3.org/2000/svg" width="48" height="48" viewBox="0 0 48 48">
    <g fill="none" fill-rule="evenodd">
        <g>
            <g>
                <g>
                    <g>
                        <path fill="#454A4C" d="M24 12c-6.628 0-12 5.372-12 12s5.372 12 12 12 12-5.372 12-12-5.372-12-12-12" transform="translate(-350 -192) translate(0 94) translate(16 98) translate(334)"/>
                        <path fill="#FFF" d="M28.365 19.508c.55.55.327 1.669-.5 2.495L25.869 24l1.998 1.997c.826.826 1.05 1.944.499 2.495-.551.551-1.67.328-2.496-.499l-1.997-1.997-1.996 1.997c-.827.827-1.945 1.05-2.496.5-.55-.552-.327-1.67.5-2.496L21.874 24l-1.996-1.997c-.826-.826-1.05-1.944-.499-2.495.551-.551 1.67-.328 2.496.499l1.996 1.996 1.997-1.996c.827-.827 1.945-1.05 2.496-.5z" transform="translate(-350 -192) translate(0 94) translate(16 98) translate(334)"/>
                    </g>
                </g>
            </g>
        </g>
    </g>
</svg>
