<svg xmlns="http://www.w3.org/2000/svg" xmlns:xlink="http://www.w3.org/1999/xlink" width="32" height="32" viewBox="0 0 32 32">
    <defs>
        <path id="13xnucjq7a" d="M2.316 1.707c-.421-.39-.421-1.024 0-1.414.421-.39 1.105-.39 1.526 0L10 6l-6.158 5.707c-.421.39-1.105.39-1.526 0-.421-.39-.421-1.024 0-1.414L6.948 6 2.316 1.707z"/>
    </defs>
    <g fill="none" fill-rule="evenodd">
        <g>
            <g>
                <g transform="translate(-24 -119) translate(0 94) translate(24 25)">
                    <circle cx="16" cy="16" r="16" fill="#B8A181" fill-rule="nonzero" transform="matrix(1 0 0 -1 0 32)"/>
                    <g transform="translate(9 10)">
                        <mask id="uqy2xvqxib" fill="#fff">
                            <use xlink:href="#13xnucjq7a"/>
                        </mask>
                        <use fill="#FFF" fill-rule="nonzero" transform="matrix(-1 0 0 1 12 0)" xlink:href="#13xnucjq7a"/>
                        <g fill="#FFF" fill-rule="nonzero" mask="url(#uqy2xvqxib)">
                            <path d="M0 0H12V12H0z"/>
                        </g>
                    </g>
                </g>
            </g>
        </g>
    </g>
</svg>
