<svg xmlns="http://www.w3.org/2000/svg" width="38" height="38" viewBox="0 0 38 38">
    <g fill="none" fill-rule="evenodd">
        <g fill="#454A4C">
            <g>
                <g>
                    <path d="M21.956 19.835l4.125 4.125-2.12 2.121-4.126-4.125c-.586-.586-.586-1.535 0-2.121.586-.586 1.535-.586 2.121 0zM11.083 0c6.122 0 11.084 4.962 11.084 11.083s-4.962 11.083-11.084 11.083C4.962 22.166 0 17.204 0 11.083S4.962 0 11.083 0zm0 2.618c-4.668 0-8.464 3.798-8.464 8.465 0 4.668 3.796 8.465 8.464 8.465 4.668 0 8.465-3.797 8.465-8.465 0-4.667-3.797-8.465-8.465-8.465zm.792 2.732c2.725 0 4.942 2.216 4.942 4.941 0 .874-.71 1.584-1.584 1.584-.874 0-1.583-.71-1.583-1.584 0-.93-.719-1.694-1.63-1.769l-.145-.006c-.875 0-1.583-.709-1.583-1.583 0-.875.708-1.583 1.583-1.583z" transform="translate(-846 -45) translate(846 45) translate(5.542 5.542)"/>
                </g>
            </g>
        </g>
    </g>
</svg>
