<svg xmlns="http://www.w3.org/2000/svg" width="38" height="38" viewBox="0 0 38 38">
    <g fill="none" fill-rule="evenodd">
        <g fill="#454A4C" fill-rule="nonzero">
            <g>
                <g>
                    <path d="M12.987 14.953c8.144 0 12.726 3.946 12.726 11.01 0 .684-.458 1.272-1.119 1.454l-.126.03-.138.018-.124.006H1.768c-.833 0-1.508-.675-1.508-1.508 0-7.064 4.582-11.01 12.727-11.01zm0 2.46c-6.302 0-9.73 2.463-10.208 7.324l-.023.273h20.462c-.375-5.042-3.813-7.596-10.231-7.596zm0-17.175c3.909 0 6.879 2.88 6.879 6.681 0 3.9-3.083 7.074-6.88 7.074-3.795 0-6.878-3.175-6.878-7.074 0-3.802 2.97-6.681 6.879-6.681zm0 2.365c-2.56 0-4.418 1.815-4.418 4.316 0 2.597 1.982 4.71 4.418 4.71s4.417-2.113 4.417-4.71c0-2.46-1.898-4.316-4.417-4.316z" transform="translate(-1174 -45) translate(1174 45) translate(5.542 4.75)"/>
                </g>
            </g>
        </g>
    </g>
</svg>
